<svg xmlns="http://www.w3.org/2000/svg" viewBox="0 0 52 52">
  <rect width="52" height="52" rx="12" fill="#1a3d1a"/>
  <path d="M12.2811 11.3924C14.4052 10.0866 17.8756 11.5255 20.044 14.6438C22.2042 17.7428 22.2679 21.3154 20.152 22.6404C18.0554 23.957 14.5659 22.5264 12.3782 19.4165C10.1988 16.3257 10.1736 12.7365 12.2811 11.3924ZM26.0069 5.45783C28.449 4.83486 31.0274 7.32018 31.8246 11.0085C32.5726 14.741 31.2437 18.2549 28.829 18.8888C26.3952 19.5309 23.836 17.0373 23.0772 13.3323C22.2908 9.61649 23.6198 6.10258 26.0069 5.45783ZM5.82875 24.6635C7.6105 22.7766 11.3247 23.1986 14.1662 25.5019C16.9366 27.9042 17.8152 31.3067 16.0527 33.1852C14.2901 35.0638 10.6034 34.6526 7.78375 32.2944C4.96409 29.9362 4.11549 26.4979 5.82875 24.6635ZM40.3832 9.72339C42.8933 9.73184 44.8169 12.7053 44.6035 16.3749C44.39 20.0446 42.1641 23.0121 39.5881 23.0094C37.0122 23.0066 35.1352 20.0357 35.2828 16.3718C35.5513 12.724 37.7881 9.72895 40.3832 9.72339ZM46.1248 31.8038C46.9818 33.5751 46.4628 36.1692 45.1356 37.6317C42.3799 40.6915 36.8992 39.1877 33.079 40.8394C29.2588 42.4911 26.6197 47.6651 22.5024 47.4174C20.176 47.3068 17.7724 45.3839 17.1256 43.2027C16.2344 40.193 19.0066 37.1715 20.1368 34.1992C21.6733 30.3222 21.3935 24.405 25.252 22.7367C29.0914 21.0766 33.2926 25.2072 37.0877 26.8703C40.2312 28.291 44.6375 28.7328 46.1248 31.8038Z" fill="#F96301"/>
</svg>
